HIERARCHY
ROOT Hips
{
	OFFSET -0.001795 -0.223333 0.028219
	CHANNELS 6 Xposition Yposition Zposition Zrotation Yrotation Xrotation 
	JOINT LeftUpLeg
	{
		OFFSET 0.069520 -0.091406 -0.006815
		CHANNELS 3 Zrotation Yrotation Xrotation
		JOINT LeftLeg
		{
			OFFSET 0.034277 -0.375199 -0.004496
			CHANNELS 3 Zrotation Yrotation Xrotation
			JOINT LeftFoot
			{
				OFFSET -0.013596 -0.397961 -0.043693
				CHANNELS 3 Zrotation Yrotation Xrotation
				JOINT LeftToe
				{
					OFFSET 0.026358 -0.055791 0.119288
					CHANNELS 3 Zrotation Yrotation Xrotation
					End Site
					{
						OFFSET 0.000000 0.000000 0.000000
					}
				}
			}
		}
	}
	JOINT RightUpLeg
	{
		OFFSET -0.067670 -0.090522 -0.004320
		CHANNELS 3 Zrotation Yrotation Xrotation
		JOINT RightLeg
		{
			OFFSET -0.038290 -0.382569 -0.008850
			CHANNELS 3 Zrotation Yrotation Xrotation
			JOINT RightFoot
			{
				OFFSET 0.015774 -0.398415 -0.042312
				CHANNELS 3 Zrotation Yrotation Xrotation
				JOINT RightToe
				{
					OFFSET -0.025372 -0.048144 0.123348
					CHANNELS 3 Zrotation Yrotation Xrotation
					End Site
					{
						OFFSET 0.000000 0.000000 0.000000
					}
				}
			}
		}
	}
	JOINT Spine
	{
		OFFSET -0.002533 0.108963 -0.026696
		CHANNELS 3 Zrotation Yrotation Xrotation
		JOINT Spine1
		{
			OFFSET 0.005487 0.135180 0.001092
			CHANNELS 3 Zrotation Yrotation Xrotation
			JOINT Spine2
			{
				OFFSET 0.001457 0.052922 0.025425
				CHANNELS 3 Zrotation Yrotation Xrotation
				JOINT Neck
				{
					OFFSET -0.002778 0.213870 -0.042857
					CHANNELS 3 Zrotation Yrotation Xrotation
					JOINT Head
					{
						OFFSET 0.005152 0.064970 0.051349
						CHANNELS 3 Zrotation Yrotation Xrotation
						End Site
						{
							OFFSET 0.000000 0.000000 0.000000
						}
					}
				}
				JOINT LeftShoulder
				{
					OFFSET 0.078845 0.121749 -0.034090
					CHANNELS 3 Zrotation Yrotation Xrotation
					JOINT LeftArm
					{
						OFFSET 0.090977 0.030469 -0.008868
						CHANNELS 3 Zrotation Yrotation Xrotation
						JOINT LeftForeArm
						{
							OFFSET 0.259612 -0.012772 -0.027456
							CHANNELS 3 Zrotation Yrotation Xrotation
							JOINT LeftHand
							{
								OFFSET 0.249234 0.008986 -0.001171
								CHANNELS 3 Zrotation Yrotation Xrotation
								End Site
								{
									OFFSET 0.000000 0.000000 0.000000
								}
							}
						}
					}
				}
				JOINT RightShoulder
				{
					OFFSET -0.081759 0.118833 -0.038615
					CHANNELS 3 Zrotation Yrotation Xrotation
					JOINT RightArm
					{
						OFFSET -0.096012 0.032551 -0.009143
						CHANNELS 3 Zrotation Yrotation Xrotation
						JOINT RightForeArm
						{
							OFFSET -0.253742 -0.013329 -0.021401
							CHANNELS 3 Zrotation Yrotation Xrotation
							JOINT RightHand
							{
								OFFSET -0.255298 0.007772 -0.005559
								CHANNELS 3 Zrotation Yrotation Xrotation
								End Site
								{
									OFFSET 0.000000 0.000000 0.000000
								}
							}
						}
					}
				}
			}
		}
	}
}
MOTION
Frames: 8
Frame Time: 0.050000
0.005957 0.781837 0.067433 0.027495 -8.728898 3.301479 17.924834 -0.740379 44.017108 -18.817166 -4.319676 -64.146700 93.519264 33.753519 113.860360 0.000000 0.000000 0.000000 -30.007828 9.306647 33.352483 19.398641 8.462260 -61.500609 -99.572821 -39.506490 112.404473 0.000000 0.000000 0.000000 4.600556 2.201386 -21.334812 2.435711 1.283263 -42.584268 3.099983 7.825070 55.962529 9.111726 2.873377 -95.263043 0.000000 0.000000 0.000000 -21.700358 -1.136866 0.916080 -25.435078 -18.420943 -4.484200 1.896800 46.493561 -0.223904 0.000000 0.000000 0.000000 6.812210 -4.991319 -1.711107 16.222065 4.494885 -3.908105 -24.487122 -33.554881 7.008772 0.000000 0.000000 0.000000 
0.004292 0.786441 0.066940 -0.070711 -8.784397 3.323623 18.127983 -0.813052 41.381251 -18.435154 -3.671879 -60.602154 96.981302 35.240553 113.198859 0.000000 0.000000 0.000000 -29.685012 8.473492 30.394336 19.694682 7.974640 -57.624340 -102.297901 -41.740662 110.690342 0.000000 0.000000 0.000000 4.711407 2.115135 -20.514544 1.668807 1.168059 -40.479190 3.935774 7.992336 53.191818 9.206547 2.660983 -92.877378 0.000000 0.000000 0.000000 -20.934741 -0.992871 0.554421 -24.726342 -17.292527 -4.184665 1.626324 45.528959 -0.538468 0.000000 0.000000 0.000000 6.908913 -6.464017 -2.410213 15.059703 3.003299 -3.574250 -25.818875 -31.197485 6.878719 0.000000 0.000000 0.000000 
0.003204 0.790224 0.066393 -0.188530 -8.629491 3.447253 18.282125 -0.911450 40.095840 -17.807427 -3.280739 -59.317289 96.649283 34.681826 113.819651 0.000000 0.000000 0.000000 -29.630088 8.224281 29.584294 19.978282 7.903975 -56.706131 -101.891514 -40.865028 111.559972 0.000000 0.000000 0.000000 4.654555 2.014820 -19.904953 1.240867 1.157972 -39.675171 4.260531 7.924709 52.030385 8.414001 2.782551 -92.305553 0.000000 0.000000 0.000000 -18.922758 -0.437910 0.174040 -25.151504 -17.001822 -4.076930 1.830109 46.492400 -0.474351 0.000000 0.000000 0.000000 5.951277 -6.995068 -2.676100 14.841917 1.342088 -3.482619 -27.887836 -30.673170 7.370409 0.000000 0.000000 0.000000 
0.002558 0.793017 0.065475 -0.060330 -8.340223 2.781372 18.718456 -1.095179 38.523211 -18.171544 -3.287769 -57.202622 101.062819 35.698187 113.839244 0.000000 0.000000 0.000000 -29.865613 7.803212 27.959695 20.805477 7.704600 -53.941831 -104.372930 -42.658478 110.582015 0.000000 0.000000 0.000000 4.536953 1.826881 -18.591058 1.338451 1.035300 -38.155934 4.014264 8.720311 50.297476 9.779204 2.640417 -90.715397 0.000000 0.000000 0.000000 -16.769072 0.115883 -0.421286 -25.038079 -17.499581 -3.655860 2.444867 46.372254 -0.407455 0.000000 0.000000 0.000000 6.172344 -7.592482 -2.928173 13.855121 1.019391 -3.184787 -28.820849 -30.075434 7.569561 0.000000 0.000000 0.000000 
0.002184 0.795602 0.064305 0.019969 -7.973569 1.950080 19.383431 -1.360364 38.099121 -18.475826 -3.424845 -56.177475 102.206805 35.419436 114.400221 0.000000 0.000000 0.000000 -30.137713 7.724318 27.877869 21.280468 7.770993 -53.559988 -104.381493 -42.842393 110.508699 0.000000 0.000000 0.000000 4.223027 1.664462 -17.639771 1.400370 1.046453 -38.669677 4.237957 8.315782 51.345597 11.189408 2.708977 -91.797255 0.000000 0.000000 0.000000 -16.477678 -0.389910 -0.069243 -24.074614 -17.778577 -3.645110 0.563836 47.039944 -1.278228 0.000000 0.000000 0.000000 6.735589 -7.038657 -2.670385 13.163086 1.745886 -3.058516 -30.423480 -32.230524 8.533429 0.000000 0.000000 0.000000 
0.001838 0.797315 0.062814 0.023047 -7.581022 1.066511 19.885940 -1.556666 37.241699 -18.421836 -3.398503 -54.996083 106.044718 34.631144 116.170907 0.000000 0.000000 0.000000 -30.001615 7.353051 27.190664 21.379330 7.463871 -52.006186 -107.826630 -43.971155 110.790738 0.000000 0.000000 0.000000 4.141840 1.528444 -16.553485 1.677152 1.062486 -39.435311 3.910399 8.509424 52.245109 13.293952 2.714041 -92.501514 0.000000 0.000000 0.000000 -15.473185 -0.906879 0.192960 -23.780781 -18.771715 -3.547228 1.777942 48.239260 -0.792728 0.000000 0.000000 0.000000 7.663748 -6.415429 -2.340036 12.005685 2.214774 -2.847266 -29.774503 -33.356087 8.552167 0.000000 0.000000 0.000000 
0.001341 0.798322 0.061451 -0.174315 -7.423069 0.260080 20.212019 -1.646329 36.542733 -18.877176 -3.472330 -53.502407 110.363163 36.065757 115.749970 0.000000 0.000000 0.000000 -30.231483 7.117036 26.281390 22.221489 7.303870 -49.650381 -110.288120 -46.236491 109.520050 0.000000 0.000000 0.000000 3.880830 1.389044 -15.543130 2.372501 0.926736 -38.720164 3.586765 8.809587 51.451076 15.933958 2.678118 -92.407187 0.000000 0.000000 0.000000 -14.950730 -1.394085 0.340284 -22.927627 -18.976215 -3.333206 1.123435 46.886439 -1.196162 0.000000 0.000000 0.000000 8.777306 -5.445550 -1.859672 11.401637 2.607662 -2.689763 -28.812310 -33.133302 8.184639 0.000000 0.000000 0.000000 
0.000777 0.797350 0.060206 -0.443119 -7.477239 0.343341 20.649746 -1.759067 36.305415 -18.945184 -3.561268 -54.263183 112.387362 34.662271 117.541757 0.000000 0.000000 0.000000 -30.613516 7.320984 26.552778 22.936283 7.684249 -50.182293 -110.349744 -45.637032 110.198466 0.000000 0.000000 0.000000 3.809536 1.396195 -15.671621 3.312597 0.986355 -40.554897 3.304128 8.825867 53.574785 17.053280 2.870095 -94.268442 0.000000 0.000000 0.000000 -15.299831 -1.825995 0.685094 -22.449713 -19.392442 -3.498535 2.450715 47.891335 -0.589209 0.000000 0.000000 0.000000 9.806005 -4.330432 -1.254299 11.267266 3.201730 -2.748849 -29.064442 -34.140497 8.455255 0.000000 0.000000 0.000000 
